<mxfile host="app.diagrams.net" modified="2024-04-29T16:41:18.142Z" agent="Mozilla/5.0 (X11; Ubuntu; Linux x86_64; rv:125.0) Gecko/20100101 Firefox/125.0" etag="tpgpToz1KRtfNRuZ8tHv" version="24.2.9" type="github">
  <diagram name="Страница — 1" id="ehPM1bGdodeN690fZ78S">
    <mxGraphModel dx="1364" dy="747" grid="1" gridSize="10" guides="1" tooltips="1" connect="1" arrows="1" fold="1" page="1" pageScale="1" pageWidth="827" pageHeight="1169" math="0" shadow="0">
      <root>
        <mxCell id="0" />
        <mxCell id="1" parent="0" />
        <mxCell id="pjE8JFhtJ5nJoqJJm5eJ-1" value="" style="rounded=1;whiteSpace=wrap;html=1;" vertex="1" parent="1">
          <mxGeometry x="24" y="70" width="780" height="390" as="geometry" />
        </mxCell>
        <mxCell id="pjE8JFhtJ5nJoqJJm5eJ-2" value="" style="endArrow=none;dashed=1;html=1;dashPattern=1 3;strokeWidth=2;rounded=0;entryX=0.001;entryY=0.338;entryDx=0;entryDy=0;entryPerimeter=0;exitX=1;exitY=0.338;exitDx=0;exitDy=0;exitPerimeter=0;" edge="1" parent="1" source="pjE8JFhtJ5nJoqJJm5eJ-1" target="pjE8JFhtJ5nJoqJJm5eJ-1">
          <mxGeometry width="50" height="50" relative="1" as="geometry">
            <mxPoint x="810" y="192" as="sourcePoint" />
            <mxPoint x="13.11999999999989" y="150" as="targetPoint" />
          </mxGeometry>
        </mxCell>
        <mxCell id="pjE8JFhtJ5nJoqJJm5eJ-3" value="" style="endArrow=none;dashed=1;html=1;dashPattern=1 3;strokeWidth=2;rounded=0;exitX=0;exitY=0.631;exitDx=0;exitDy=0;exitPerimeter=0;entryX=1.001;entryY=0.628;entryDx=0;entryDy=0;entryPerimeter=0;" edge="1" parent="1" source="pjE8JFhtJ5nJoqJJm5eJ-1" target="pjE8JFhtJ5nJoqJJm5eJ-1">
          <mxGeometry width="50" height="50" relative="1" as="geometry">
            <mxPoint x="170" y="360" as="sourcePoint" />
            <mxPoint x="220" y="310" as="targetPoint" />
          </mxGeometry>
        </mxCell>
        <mxCell id="pjE8JFhtJ5nJoqJJm5eJ-4" value="" style="endArrow=none;dashed=1;html=1;dashPattern=1 3;strokeWidth=2;rounded=0;entryX=0.368;entryY=-0.005;entryDx=0;entryDy=0;entryPerimeter=0;" edge="1" parent="1" target="pjE8JFhtJ5nJoqJJm5eJ-1">
          <mxGeometry width="50" height="50" relative="1" as="geometry">
            <mxPoint x="311" y="200" as="sourcePoint" />
            <mxPoint x="440" y="370" as="targetPoint" />
          </mxGeometry>
        </mxCell>
        <mxCell id="pjE8JFhtJ5nJoqJJm5eJ-5" value="" style="endArrow=none;dashed=1;html=1;dashPattern=1 3;strokeWidth=2;rounded=0;entryX=0.6;entryY=0;entryDx=0;entryDy=0;entryPerimeter=0;" edge="1" parent="1" target="pjE8JFhtJ5nJoqJJm5eJ-1">
          <mxGeometry width="50" height="50" relative="1" as="geometry">
            <mxPoint x="492" y="200" as="sourcePoint" />
            <mxPoint x="550" y="120" as="targetPoint" />
          </mxGeometry>
        </mxCell>
        <mxCell id="pjE8JFhtJ5nJoqJJm5eJ-6" value="&lt;font color=&quot;#ff3333&quot;&gt;Display&lt;/font&gt;" style="text;html=1;align=center;verticalAlign=middle;whiteSpace=wrap;rounded=0;" vertex="1" parent="1">
          <mxGeometry x="50" y="70" width="60" height="30" as="geometry" />
        </mxCell>
        <mxCell id="pjE8JFhtJ5nJoqJJm5eJ-7" value="ClockTime" style="ellipse;whiteSpace=wrap;html=1;" vertex="1" parent="1">
          <mxGeometry x="70" y="120" width="80" height="50" as="geometry" />
        </mxCell>
        <mxCell id="pjE8JFhtJ5nJoqJJm5eJ-8" value="WakeTime" style="ellipse;whiteSpace=wrap;html=1;" vertex="1" parent="1">
          <mxGeometry x="185" y="90" width="90" height="40" as="geometry" />
        </mxCell>
        <mxCell id="pjE8JFhtJ5nJoqJJm5eJ-10" value="SleepTime" style="ellipse;whiteSpace=wrap;html=1;" vertex="1" parent="1">
          <mxGeometry x="200" y="140" width="90" height="40" as="geometry" />
        </mxCell>
        <mxCell id="pjE8JFhtJ5nJoqJJm5eJ-12" value="" style="endArrow=classic;startArrow=classic;html=1;rounded=0;exitX=1;exitY=0;exitDx=0;exitDy=0;" edge="1" parent="1" source="pjE8JFhtJ5nJoqJJm5eJ-7" target="pjE8JFhtJ5nJoqJJm5eJ-8">
          <mxGeometry width="50" height="50" relative="1" as="geometry">
            <mxPoint x="140" y="140" as="sourcePoint" />
            <mxPoint x="190" y="90" as="targetPoint" />
          </mxGeometry>
        </mxCell>
        <mxCell id="pjE8JFhtJ5nJoqJJm5eJ-13" value="" style="endArrow=classic;startArrow=classic;html=1;rounded=0;exitX=0.95;exitY=0.7;exitDx=0;exitDy=0;exitPerimeter=0;" edge="1" parent="1" source="pjE8JFhtJ5nJoqJJm5eJ-7" target="pjE8JFhtJ5nJoqJJm5eJ-10">
          <mxGeometry width="50" height="50" relative="1" as="geometry">
            <mxPoint x="140" y="150" as="sourcePoint" />
            <mxPoint x="210" y="140" as="targetPoint" />
          </mxGeometry>
        </mxCell>
      </root>
    </mxGraphModel>
  </diagram>
</mxfile>
